<?xml version="1.0" standalone="no"?>
<!DOCTYPE svg PUBLIC "-//W3C//DTD SVG 20010904//EN"
 "http://www.w3.org/TR/2001/REC-SVG-20010904/DTD/svg10.dtd">
<svg version="1.0" xmlns="http://www.w3.org/2000/svg"
 width="600.000000pt" height="600.000000pt" viewBox="0 0 600.000000 600.000000"
 preserveAspectRatio="xMidYMid meet">
<g transform="translate(0.000000,600.000000) scale(0.100000,-0.100000)"
fill="#000000" stroke="none">
<path d="M1607 5620 c-94 -17 -185 -90 -235 -190 l-27 -55 -3 -598 -3 -598
-64 -60 c-105 -99 -156 -196 -176 -333 -14 -104 1 -190 53 -296 95 -196 298
-320 524 -320 326 0 584 243 584 550 0 149 -49 259 -167 378 l-82 84 -3 591
-3 592 -26 55 c-68 145 -219 226 -372 200z m142 -86 c39 -11 67 -29 101 -64
82 -81 80 -65 80 -745 l0 -592 60 -46 c139 -109 203 -282 166 -456 -19 -88
-51 -147 -124 -224 -99 -103 -235 -154 -387 -144 -355 23 -565 392 -394 693
29 51 115 140 156 163 l22 11 3 623 3 622 27 46 c32 54 84 97 142 115 55 17
83 17 145 -2z"/>
<path d="M1601 5462 c-19 -9 -48 -34 -65 -55 l-31 -39 -5 -648 -5 -649 -45
-32 c-61 -44 -95 -84 -128 -149 -24 -49 -27 -66 -27 -160 0 -101 1 -108 34
-168 90 -166 284 -248 458 -194 206 65 325 272 268 467 -24 85 -89 171 -162
216 l-32 20 -3 637 -3 637 -25 43 c-47 82 -149 115 -229 74z m144 -64 c56 -44
55 -33 55 -727 l0 -640 26 -18 c61 -42 102 -85 129 -135 26 -47 29 -63 30
-138 0 -98 -20 -152 -83 -215 -63 -64 -159 -93 -213 -64 -29 15 -17 25 59 48
127 38 202 134 202 257 0 84 -37 156 -99 194 -25 15 -56 37 -68 49 l-23 20 0
459 c0 390 -2 461 -15 472 -15 13 -137 10 -167 -4 -17 -8 -18 5 -18 185 1 139
4 201 14 217 33 60 120 80 171 40z m-105 -617 l0 -109 -31 -11 c-18 -6 -36
-11 -40 -11 -5 0 -9 49 -9 110 0 117 5 129 58 130 21 0 22 -3 22 -109z m0
-292 l0 -110 -35 -15 c-19 -7 -37 -14 -40 -14 -3 0 -4 51 -3 112 3 109 4 113
28 125 48 24 50 21 50 -98z m0 -364 l0 -174 -29 -16 c-35 -17 -64 -56 -80
-106 -14 -45 -38 -67 -78 -75 -24 -5 -35 -1 -52 17 -11 12 -21 33 -21 46 0 56
74 149 149 188 l31 16 0 124 c0 117 1 125 22 139 12 9 30 16 40 16 17 0 18
-14 18 -175z m-200 -457 c23 -50 26 -88 7 -88 -31 0 -73 76 -62 111 10 32 35
21 55 -23z"/>
<path d="M4286 5578 c-9 -12 -16 -26 -16 -31 0 -15 -97 -214 -156 -319 -79
-141 -159 -266 -285 -443 -275 -388 -322 -488 -336 -700 -14 -230 65 -435 231
-600 131 -130 304 -206 522 -228 94 -9 127 -8 210 6 208 34 339 99 474 236 98
100 140 165 183 288 30 83 32 96 32 233 0 124 -3 156 -24 220 -48 155 -120
282 -298 527 -204 279 -343 513 -449 753 -38 87 -59 100 -88 58z m101 -263
c76 -168 165 -325 343 -605 182 -285 232 -383 261 -506 37 -163 14 -333 -67
-479 -42 -76 -167 -194 -249 -237 -224 -116 -440 -114 -682 4 -49 24 -93 58
-159 123 -77 75 -98 104 -133 176 -90 187 -94 379 -12 577 40 97 66 140 211
352 193 281 298 464 385 673 16 37 32 64 36 60 4 -4 34 -67 66 -138z"/>
<path d="M4068 4839 c-101 -174 -178 -319 -178 -333 0 -51 55 -77 113 -52 73
30 121 143 203 485 25 102 43 190 42 196 -2 7 -83 -127 -180 -296z"/>
<path d="M4725 4522 c122 -244 160 -438 120 -610 -15 -63 -65 -173 -93 -205
-22 -25 -9 -30 20 -7 38 29 96 122 118 186 64 184 13 420 -137 646 -76 113
-87 109 -28 -10z"/>
<path d="M3839 4375 c-53 -28 -75 -125 -44 -185 38 -73 126 -65 165 15 33 69
21 138 -29 168 -35 20 -57 21 -92 2z"/>
<path d="M4675 4130 c-54 -21 -105 -105 -107 -175 -3 -95 62 -141 141 -101 58
30 111 114 111 177 0 78 -74 129 -145 99z"/>
<path d="M3732 4004 c3 -89 7 -107 39 -174 81 -171 257 -295 450 -318 106 -13
216 1 292 38 34 17 51 28 37 25 -14 -3 -70 -8 -125 -11 -287 -16 -535 138
-639 398 -14 37 -29 81 -32 98 -4 17 -11 33 -17 37 -6 4 -8 -29 -5 -93z"/>
<path d="M4450 3770 c-22 -22 -25 -42 -10 -71 22 -41 100 -10 100 40 0 51 -52
69 -90 31z"/>
<path d="M972 5228 c-7 -7 -12 -18 -12 -25 0 -26 41 -34 161 -31 101 3 124 6
132 20 8 12 7 21 -2 32 -11 13 -37 16 -140 16 -85 0 -131 -4 -139 -12z"/>
<path d="M1095 5040 c-3 -5 -3 -19 0 -30 6 -19 14 -21 83 -18 75 3 77 4 77 28
0 24 -2 25 -77 28 -46 2 -79 -1 -83 -8z"/>
<path d="M982 4861 c-8 -4 -12 -19 -10 -32 3 -24 3 -24 143 -24 130 0 140 1
143 19 7 36 -24 46 -147 46 -64 0 -122 -4 -129 -9z"/>
<path d="M1102 4668 c-34 -34 5 -60 85 -56 63 3 87 24 64 52 -16 20 -131 22
-149 4z"/>
<path d="M970 4475 c-7 -8 -10 -22 -6 -30 4 -12 30 -15 146 -15 116 0 142 3
146 15 4 8 1 22 -6 30 -10 12 -39 15 -140 15 -101 0 -130 -3 -140 -15z"/>
<path d="M1094 4285 c-14 -37 3 -46 78 -43 70 3 73 4 73 28 0 24 -3 25 -73 28
-58 2 -73 0 -78 -13z"/>
<path d="M4136 2760 c-250 -40 -506 -177 -659 -353 -187 -216 -279 -480 -264
-762 26 -497 376 -899 861 -990 115 -21 263 -28 372 -15 498 55 857 377 959
860 20 93 19 285 -1 390 -79 418 -393 746 -816 851 -95 23 -353 34 -452 19z
m334 -75 c445 -67 783 -402 841 -833 65 -487 -246 -939 -736 -1068 -88 -24
-119 -27 -260 -27 -140 0 -172 3 -260 26 -310 81 -566 304 -680 592 -50 125
-68 242 -62 395 6 149 25 233 82 357 182 397 625 627 1075 558z"/>
<path d="M4143 2626 c-101 -20 -165 -42 -267 -94 -212 -109 -365 -274 -446
-484 -133 -344 -47 -710 228 -969 136 -128 296 -209 487 -244 118 -23 306 -16
420 14 329 87 603 370 669 693 20 95 21 280 2 368 -73 344 -335 608 -694 701
-101 26 -300 34 -399 15z m391 -57 c58 -15 170 -57 189 -72 15 -11 11 -20 -28
-85 -25 -40 -45 -77 -45 -82 0 -6 12 -16 27 -23 22 -10 28 -9 37 6 6 10 28 45
48 78 l38 60 30 -16 c75 -39 281 -269 264 -296 -2 -4 -38 -27 -79 -51 -75 -43
-89 -64 -61 -87 12 -10 30 -3 93 33 l77 46 13 -24 c16 -30 50 -157 59 -218 l6
-48 -91 0 c-88 0 -92 -1 -103 -25 -8 -18 -9 -35 -2 -53 9 -26 11 -27 102 -30
74 -2 92 -6 92 -18 0 -67 -75 -303 -101 -320 -5 -3 -38 11 -74 31 -74 42 -108
41 -103 -2 2 -20 18 -35 62 -62 33 -20 61 -41 63 -47 7 -21 -169 -202 -229
-235 -14 -8 -25 3 -62 61 -25 38 -48 70 -51 70 -19 0 -45 -23 -45 -40 0 -11
16 -44 35 -74 19 -30 35 -60 35 -66 0 -24 -190 -90 -302 -105 l-48 -6 0 93 c0
51 -4 99 -9 106 -5 9 -25 12 -57 10 l-49 -3 -3 -103 -3 -103 -47 6 c-94 13
-280 73 -311 101 -2 2 15 35 38 74 35 59 40 73 31 91 -20 37 -51 20 -94 -53
-23 -38 -45 -68 -49 -68 -30 0 -220 169 -247 220 -11 21 -17 17 111 92 34 21
38 52 9 68 -17 9 -32 4 -89 -30 -38 -22 -73 -40 -78 -40 -24 0 -99 191 -110
277 -3 29 -6 56 -7 60 0 5 46 10 104 13 l105 5 3 44 c2 28 -1 47 -10 52 -7 5
-56 9 -110 9 l-96 0 5 43 c9 74 34 160 69 235 l34 74 32 -20 c97 -60 122 -71
140 -61 36 20 21 47 -52 90 -39 23 -72 45 -75 49 -12 20 168 199 238 236 30
16 20 27 99 -107 20 -33 39 -37 62 -13 15 14 13 22 -25 91 -48 87 -49 87 52
127 84 32 181 56 236 56 l42 0 3 -102 3 -103 40 0 40 0 3 95 c1 52 4 100 6
106 4 12 94 3 170 -17z"/>
<path d="M4900 2163 c-160 -97 -259 -160 -374 -236 -119 -79 -120 -79 -165
-70 -89 17 -157 -12 -191 -81 -25 -54 -25 -89 1 -142 22 -46 63 -77 116 -89
77 -16 167 44 181 121 8 45 7 45 212 209 341 273 360 291 328 323 -18 18 -26
15 -108 -35z m-528 -390 c10 -9 18 -30 18 -47 0 -64 -54 -100 -109 -72 -49 26
-56 82 -15 123 20 20 31 24 57 19 17 -3 39 -14 49 -23z"/>
<path d="M3747 2152 c-10 -10 -17 -26 -17 -36 0 -33 307 -388 361 -417 22 -11
49 -1 49 18 0 8 -53 72 -117 142 -122 130 -114 127 64 -27 l63 -53 40 42 c31
33 37 45 29 55 -18 22 -429 294 -443 294 -7 0 -20 -8 -29 -18z"/>
<path d="M1197 2494 c-151 -27 -316 -117 -406 -221 -51 -58 -125 -204 -148
-293 -24 -89 -24 -300 1 -390 42 -159 150 -315 276 -398 118 -79 271 -122 438
-122 209 0 380 60 504 178 l38 36 -32 26 -32 27 -55 -45 c-113 -92 -246 -136
-416 -136 -269 0 -462 118 -575 349 -51 103 -71 194 -71 314 1 182 64 345 177
457 180 178 513 226 754 108 109 -54 213 -160 269 -275 49 -103 71 -194 71
-306 0 -46 3 -83 8 -83 4 0 25 7 47 14 l40 14 -1 84 c-2 200 -128 437 -293
551 -162 111 -374 151 -594 111z"/>
<path d="M1247 2390 c-97 -25 -178 -97 -228 -203 -92 -198 -86 -537 13 -746
79 -165 231 -250 396 -221 153 26 234 109 294 300 21 68 23 93 23 270 0 172
-3 204 -22 272 -66 226 -176 328 -358 334 -44 2 -97 -1 -118 -6z m230 -96
c115 -67 174 -273 159 -560 -10 -195 -50 -320 -122 -384 -49 -43 -93 -60 -151
-60 -132 1 -227 109 -269 305 -25 122 -23 385 5 489 35 131 91 205 178 233 56
19 148 8 200 -23z"/>
<path d="M2075 1691 c-126 -31 -205 -135 -205 -272 0 -71 13 -79 123 -79 51 0
99 5 107 10 10 6 17 32 20 77 5 62 7 68 29 71 29 4 41 -12 41 -56 0 -79 -68
-159 -255 -301 -60 -46 -116 -91 -122 -100 -15 -18 -17 -119 -3 -155 l10 -26
349 0 c336 0 351 1 361 19 13 25 13 207 0 232 -10 17 -22 19 -128 19 l-117 1
30 25 c109 91 138 120 162 162 24 41 28 58 28 128 0 71 -3 85 -28 122 -35 53
-96 98 -160 117 -52 15 -188 19 -242 6z m206 -61 c134 -37 191 -170 121 -281
-34 -54 -91 -101 -242 -205 l-115 -79 208 -3 208 -2 -3 -58 -3 -57 -285 0
-285 0 -3 32 c-3 29 4 37 115 121 142 109 215 183 248 254 63 134 -3 263 -116
229 -48 -14 -76 -50 -85 -107 l-6 -44 -46 0 -45 0 6 52 c9 71 59 122 147 149
37 11 140 10 181 -1z"/>
</g>
</svg>
