<?xml version="1.0" standalone="no"?>
<!DOCTYPE svg PUBLIC "-//W3C//DTD SVG 20010904//EN"
 "http://www.w3.org/TR/2001/REC-SVG-20010904/DTD/svg10.dtd">
<svg version="1.0" xmlns="http://www.w3.org/2000/svg"
 width="225.000000pt" height="225.000000pt" viewBox="0 0 225.000000 225.000000"
 preserveAspectRatio="xMidYMid meet">
<g transform="translate(0.000000,225.000000) scale(0.050000,-0.050000)"
fill="#000000" stroke="none">
<path d="M1660 4448 c-861 -229 -1290 -1021 -856 -1584 173 -223 696 -538 696
-419 0 152 232 425 451 529 l149 70 0 93 c1 132 44 300 146 564 121 317 140
401 113 504 -61 224 -368 331 -699 243z"/>
<path d="M3144 3843 c-241 -86 -469 -306 -623 -604 -99 -189 -99 -190 -6 -220
261 -85 449 -268 536 -523 l31 -90 135 -13 c136 -13 269 -53 593 -179 466
-182 681 -56 679 396 -3 725 -778 1436 -1345 1233z"/>
<path d="M2073 2825 c-541 -180 -529 -1002 17 -1174 422 -133 800 145 800 589
0 447 -391 727 -817 585z"/>
<path d="M252 2339 c-339 -101 -320 -708 37 -1209 524 -733 1255 -685 1690
112 105 193 104 198 -42 268 -198 94 -437 384 -437 530 0 29 -34 38 -195 57
-208 23 -234 30 -635 171 -264 93 -315 102 -418 71z"/>
<path d="M3032 1929 c-97 -223 -295 -399 -534 -475 -23 -8 -37 -46 -47 -127
-14 -115 -73 -283 -222 -637 -122 -290 -116 -427 24 -550 361 -317 1324 64
1591 631 207 439 -22 933 -562 1217 -181 94 -184 94 -250 -59z"/>
</g>
</svg>
