<?xml version="1.0" standalone="no"?>
<!DOCTYPE svg PUBLIC "-//W3C//DTD SVG 20010904//EN"
 "http://www.w3.org/TR/2001/REC-SVG-20010904/DTD/svg10.dtd">
<svg version="1.0" xmlns="http://www.w3.org/2000/svg"
 width="600.000000pt" height="900.000000pt" viewBox="0 0 600.000000 900.000000"
 preserveAspectRatio="xMidYMid meet">
<g transform="translate(0.000000,900.000000) scale(0.100000,-0.100000)"
fill="currentColor" stroke="none">
<path d="M2953 6928 c-13 -6 -43 -41 -68 -77 -128 -190 -384 -478 -639 -720
-180 -171 -561 -494 -643 -545 -45 -27 -55 -54 -28 -76 12 -10 43 -6 157 18
79 17 186 36 238 42 326 38 607 148 926 361 l102 68 93 -106 c129 -146 258
-250 349 -282 55 -19 231 -39 537 -61 155 -11 318 -27 363 -36 64 -12 85 -13
96 -3 28 23 12 53 -43 81 -118 61 -259 170 -481 371 -306 278 -516 501 -755
799 -96 121 -158 182 -179 177 -2 0 -13 -5 -25 -11z m672 -898 c185 -181 329
-314 415 -383 l35 -29 -145 6 c-157 7 -384 31 -440 46 -92 26 -232 136 -353
279 l-80 95 63 55 c35 31 100 89 144 129 l79 73 41 -38 c23 -21 131 -126 241
-233z"/>
<path d="M2404 5515 c-11 -8 -14 -99 -16 -470 l-3 -460 -72 -3 -73 -3 0 413
c0 358 -2 417 -16 436 -15 22 -18 22 -263 22 -204 0 -251 -3 -260 -14 -15 -18
-24 -2600 -10 -2628 9 -16 32 -18 270 -18 l259 0 10 26 c6 15 10 237 10 560
l0 535 73 -3 72 -3 2 -519 c2 -372 6 -522 14 -532 9 -11 54 -14 214 -14 183 0
203 2 218 18 15 17 17 69 17 535 l0 517 175 0 c96 0 176 -1 177 -2 2 -2 5
-253 8 -558 l5 -555 260 -3 c236 -2 261 -1 273 15 9 13 12 142 12 565 l0 548
75 0 75 0 0 -564 c0 -500 2 -566 16 -580 13 -13 46 -16 205 -16 112 0 198 4
210 10 19 11 19 36 19 1329 0 1043 -3 1321 -12 1329 -7 5 -101 13 -209 17
-175 6 -197 5 -212 -10 -15 -15 -17 -62 -17 -516 l0 -499 -75 0 -75 0 0 503
c0 276 -4 508 -8 515 -7 9 -68 12 -273 10 l-264 -3 -5 -430 -5 -430 -177 -3
-178 -2 0 465 c0 364 -3 467 -12 470 -29 9 -422 10 -434 0z m-284 -608 c4
-366 7 -429 20 -437 9 -6 244 -10 586 -10 466 0 574 2 583 13 7 10 12 145 13
438 l3 424 160 0 160 0 3 -1204 c1 -894 -1 -1207 -9 -1218 -9 -11 -44 -13
-163 -11 l-151 3 -5 555 -5 555 -584 3 c-401 1 -588 -1 -595 -8 -7 -7 -13
-193 -16 -558 l-5 -547 -155 0 -155 0 -3 1209 c-2 961 0 1211 10 1218 7 4 78
7 158 5 l145 -2 5 -428z"/>
</g>
</svg>
